<svg width="22" height="22" viewBox="0 0 22 22" fill="none" xmlns="http://www.w3.org/2000/svg">
<path d="M3.66663 18.3333V9.16667C3.66663 8.19421 4.05293 7.26157 4.74057 6.57394C5.4282 5.88631 6.36083 5.5 7.33329 5.5H14.6666C15.6391 5.5 16.5717 5.88631 17.2594 6.57394C17.947 7.26157 18.3333 8.19421 18.3333 9.16667V18.3333C18.3333 18.8196 18.1401 19.2859 17.7963 19.6297C17.4525 19.9735 16.9862 20.1667 16.5 20.1667H5.49996C5.01373 20.1667 4.54741 19.9735 4.2036 19.6297C3.85978 19.2859 3.66663 18.8196 3.66663 18.3333V18.3333Z" stroke="#637381" stroke-width="2" stroke-linecap="round" stroke-linejoin="round"/>
<path d="M8.25 5.50016V3.66683C8.25 3.1806 8.44315 2.71428 8.78697 2.37047C9.13079 2.02665 9.5971 1.8335 10.0833 1.8335H11.9167C12.4029 1.8335 12.8692 2.02665 13.213 2.37047C13.5568 2.71428 13.75 3.1806 13.75 3.66683V5.50016" stroke="#637381" stroke-width="2" stroke-linecap="round" stroke-linejoin="round"/>
<path d="M7.33337 19.2502V14.6668C7.33337 14.1806 7.52653 13.7143 7.87035 13.3705C8.21416 13.0267 8.68048 12.8335 9.16671 12.8335H12.8334C13.3196 12.8335 13.7859 13.0267 14.1297 13.3705C14.4736 13.7143 14.6667 14.1806 14.6667 14.6668V19.2502" stroke="#637381" stroke-width="2" stroke-linecap="round" stroke-linejoin="round"/>
<path d="M7.33337 9.1665H14.6667" stroke="#637381" stroke-width="2" stroke-linecap="round" stroke-linejoin="round"/>
<path d="M7.33337 16.5H14.6667" stroke="#637381" stroke-width="2" stroke-linecap="round" stroke-linejoin="round"/>
</svg>
