<svg width="22" height="22" viewBox="0 0 22 22" fill="none" xmlns="http://www.w3.org/2000/svg">
<rect x="9.16663" y="12.8333" width="3.66667" height="6.41667" fill="#212B36"/>
<path d="M18.7183 9.33164L11.6508 2.10831C11.4787 1.93477 11.2444 1.83716 11 1.83716C10.7556 1.83716 10.5213 1.93477 10.3492 2.10831L3.28165 9.34081C2.93621 9.68903 2.74472 10.1612 2.74998 10.6516V18.3333C2.74851 19.3077 3.50954 20.113 4.48248 20.1666H7.33332V11.9166C7.33332 11.4104 7.74372 11 8.24998 11H13.75C14.2562 11 14.6667 11.4104 14.6667 11.9166V20.1666H17.5175C18.4904 20.113 19.2515 19.3077 19.25 18.3333V10.6516C19.2507 10.1593 19.0601 9.68601 18.7183 9.33164Z" fill="#637381"/>
</svg>
