<svg width="19" height="18" viewBox="0 0 19 18" fill="none" xmlns="http://www.w3.org/2000/svg">
<path d="M15.5 11.7501C14.7799 11.7507 14.0887 12.0337 13.575 12.5384L6.33332 9.31173V9.00006V8.69756L13.575 5.46173C14.5102 6.37843 15.9621 6.50847 17.0454 5.77254C18.1286 5.03661 18.5426 3.6389 18.0349 2.43173C17.5272 1.22457 16.2387 0.542876 14.9551 0.802353C13.6715 1.06183 12.7489 2.19048 12.75 3.50006V3.81173L5.50832 7.03839C4.42944 5.97843 2.6971 5.98864 1.63079 7.06126C0.564477 8.13387 0.564477 9.86625 1.63079 10.9389C2.6971 12.0115 4.42944 12.0217 5.50832 10.9617L12.75 14.1976V14.5001C12.75 16.0188 13.9812 17.2501 15.5 17.2501C17.0188 17.2501 18.25 16.0188 18.25 14.5001C18.25 12.9813 17.0188 11.7501 15.5 11.7501Z" fill="#637381"/>
</svg>
